<?xml version="1.0" encoding="UTF-8" standalone="no"?>
<!-- Generator: Adobe Illustrator 24.0.1, SVG Export Plug-In . SVG Version: 6.00 Build 0)  -->

<svg
   version="1.1"
   id="Layer_1"
   x="0px"
   y="0px"
   viewBox="0 0 1050 500"
   xml:space="preserve"
   sodipodi:docname="mechanicGear.svg"
   width="1050"
   height="500"
   inkscape:export-filename="mechanicGear_500x1050.svg"
   inkscape:export-xdpi="96"
   inkscape:export-ydpi="96"
   xmlns:inkscape="http://www.inkscape.org/namespaces/inkscape"
   xmlns:sodipodi="http://sodipodi.sourceforge.net/DTD/sodipodi-0.dtd"
   xmlns="http://www.w3.org/2000/svg"
   xmlns:svg="http://www.w3.org/2000/svg"><defs
   id="defs16" /><sodipodi:namedview
   id="namedview16"
   pagecolor="#ffffff"
   bordercolor="#000000"
   borderopacity="0.25"
   inkscape:showpageshadow="2"
   inkscape:pageopacity="0.0"
   inkscape:pagecheckerboard="0"
   inkscape:deskcolor="#d1d1d1"><inkscape:page
     x="0"
     y="0"
     width="1050"
     height="500"
     id="page2"
     margin="0"
     bleed="0" /></sodipodi:namedview>

<g
   id="g18"
   transform="matrix(1.7044559,0,0,1.7087941,-1179.4559,-1623.3544)"><g
     id="g17"
     transform="translate(21.626571,39.999999)"><g
       id="g16"
       transform="matrix(0.47624447,0,0,0.47834175,363.61834,525.00186)">
	<path
   d="m 831.51,985.96 -19.63,6.61 v 23.79 c 0,1.6 1.14,2.97 2.72,3.25 l 28.02,5.04 c 2.47,-4.23 3.77,-8.99 3.77,-13.97 0,-10.46 -5.77,-19.91 -14.88,-24.72 z"
   id="path1" />
	<path
   d="m 870.49,936.5 c -1.44,4.02 -2.72,8.09 -3.85,12.18 7.51,4.43 14.11,10.43 19.28,17.68 12.06,-51.85 58.56,-90.49 114.08,-90.49 58.97,0 107.76,43.59 115.92,100.3 0.43,-0.17 0.88,-0.34 1.31,-0.52 0.16,-0.08 0.31,-0.15 0.45,-0.2 1.3,-0.58 2.58,-1.18 3.82,-1.81 2.45,-4.17 5.43,-8.02 8.86,-11.46 1.31,-1.31 2.67,-2.54 4.08,-3.7 -0.62,-2.46 -1.29,-4.9 -2.04,-7.32 -1.68,-5.47 -3.79,-10.79 -6.11,-16.02 -2.34,-5.22 -4.96,-10.32 -7.94,-15.22 -2.99,-4.89 -6.23,-9.63 -9.74,-14.17 -3.5,-4.55 -7.32,-8.85 -11.37,-12.95 -4.04,-4.1 -8.33,-7.95 -12.84,-11.56 -8.99,-7.25 -18.93,-13.33 -29.41,-18.41 10.92,4.07 21.33,9.64 30.88,16.47 9.51,6.88 18.27,14.89 25.76,24.02 12.6,15.08 21.85,32.96 27.07,51.97 3.2,-2.17 6.59,-4.01 10.14,-5.47 -4.02,-13.89 -9.92,-26.97 -17.43,-38.96 -0.7,-1.12 -0.68,-2.55 0.07,-3.64 l 18.42,-26.5 c 0.91,-1.31 0.75,-3.09 -0.38,-4.22 l -33.04,-33.04 c -1.13,-1.13 -2.91,-1.29 -4.22,-0.38 l -26.5,18.42 c -1.09,0.76 -2.52,0.78 -3.64,0.07 -14.36,-8.99 -30.29,-15.69 -47.3,-19.6 -1.29,-0.3 -2.29,-1.32 -2.52,-2.63 l -5.71,-31.76 c -0.28,-1.57 -1.65,-2.72 -3.25,-2.72 h -46.72 c -1.6,0 -2.97,1.14 -3.25,2.72 l -5.71,31.76 c -0.23,1.31 -1.23,2.33 -2.52,2.63 -17,3.91 -32.94,10.61 -47.3,19.6 -1.12,0.7 -2.55,0.68 -3.64,-0.07 l -26.5,-18.42 c -1.31,-0.91 -3.09,-0.75 -4.22,0.38 l -33.04,33.04 c -1.13,1.13 -1.29,2.91 -0.38,4.22 l 18.42,26.5 c 0.76,1.09 0.78,2.52 0.07,3.64 -6.23,9.94 -11.35,20.64 -15.22,31.93 4.16,1.3 8.17,3.02 11.96,5.13 1.56,-3.89 3.28,-7.71 5.2,-11.42 z"
   id="path2" />
	<path
   d="m 1169.03,1014.61 c 2.89,2.89 6.36,4.96 10.18,6.11 l 4.45,-0.8 4.07,-2.02 c 0.25,-0.46 0.39,-0.99 0.39,-1.54 v -38.54 l -25.26,12.54 c -2.53,8.56 -0.23,17.85 6.17,24.25 z"
   id="path3" />
	<path
   d="m 1120.82,1068.57 c -6.57,9.73 -14.28,18.66 -23.02,26.36 7.97,-8.5 15.06,-17.73 20.94,-27.67 4.56,-7.78 8.38,-15.96 11.46,-24.39 -0.21,-0.21 -0.44,-0.44 -0.7,-0.72 -0.23,-0.13 -0.46,-0.25 -0.69,-0.38 -1.13,3.64 -2.98,6.98 -5.53,9.89 -2.51,2.89 -5.59,8.11 -8.07,12.3 l -0.41,0.69 c -3.86,6.45 -7.85,13.11 -12.75,17.96 -7.09,7.1 -15.92,13.7 -32.27,13.7 -1.41,0 -2.98,-0.05 -4.67,-0.16 -0.77,-0.05 -1.53,-0.08 -2.31,-0.08 -3.83,0 -5.8,0.72 -9.06,1.9 l -0.37,0.14 c -1.61,0.59 -3.51,1.28 -5.72,1.91 -14.56,6.5 -30.69,10.11 -47.66,10.11 -48.27,0 -89.72,-29.21 -107.65,-70.91 -4.39,2.15 -8.66,4.56 -12.72,7.21 -1.79,1.83 -3.67,3.51 -5.63,5.09 2.86,6.33 6.15,12.48 9.83,18.4 l 3.19,4.83 c 0.52,0.82 1.08,1.6 1.67,2.37 l 1.71,2.34 1.71,2.35 c 0.57,0.78 1.21,1.51 1.82,2.26 1.23,1.49 2.44,3.01 3.69,4.49 5.08,5.87 10.64,11.33 16.45,16.59 -6.49,-4.39 -12.57,-9.42 -18.23,-14.92 -5.53,-5.63 -10.71,-11.64 -15.24,-18.15 -1.15,-1.61 -2.18,-3.31 -3.28,-4.96 l -1.6,-2.51 -1.45,-2.6 c -0.95,-1.74 -1.98,-3.44 -2.87,-5.22 l -1.18,-2.42 c -3.17,2.18 -6.51,4.04 -10,5.59 2.51,5.23 5.3,10.31 8.36,15.2 0.7,1.12 0.68,2.55 -0.07,3.64 l -18.42,26.5 c -0.91,1.31 -0.75,3.09 0.38,4.22 l 33.04,33.04 c 1.13,1.13 2.91,1.29 4.22,0.38 l 26.5,-18.42 c 1.09,-0.76 2.52,-0.78 3.64,-0.07 14.36,8.99 30.29,15.69 47.3,19.6 1.29,0.3 2.29,1.32 2.52,2.63 l 5.71,31.76 c 0.28,1.57 1.65,2.72 3.25,2.72 h 46.72 c 1.6,0 2.97,-1.14 3.25,-2.72 l 5.71,-31.76 c 0.23,-1.31 1.23,-2.33 2.52,-2.63 17,-3.91 32.94,-10.61 47.3,-19.6 1.12,-0.7 2.55,-0.68 3.64,0.07 l 26.5,18.42 c 1.31,0.91 3.09,0.75 4.22,-0.38 l 33.04,-33.04 c 1.13,-1.13 1.29,-2.91 0.38,-4.22 l -18.42,-26.5 c -0.76,-1.09 -0.78,-2.52 -0.07,-3.64 4.47,-7.14 8.37,-14.67 11.65,-22.52 -3.55,-1.97 -6.91,-4.33 -10.01,-7.07 -3.38,8.02 -7.49,15.74 -12.25,23 z"
   id="path4" />
	<path
   d="m 1164.08,1019.56 c -9.01,-9.01 -11.7,-22.42 -6.87,-34.21 l 44.63,-22.16 -0.78,-0.59 c -19.84,-15.05 -48.12,-13.11 -65.76,4.53 -3.55,3.55 -6.47,7.53 -8.73,11.75 -1.92,1.03 -3.97,2.04 -6.16,3 -0.07,0.03 -0.13,0.05 -0.2,0.09 -4.78,2.08 -9.78,3.55 -14.89,4.47 -0.98,-12.37 -3,-28.3 -7.14,-34.34 l -1.11,-1.57 c -4.14,-6.02 -5.88,-8.53 -6.87,-14.62 -2.16,-13.47 -20.56,-20.89 -32.46,-20.89 -0.59,0 -1.18,0 -1.76,0.04 -4.64,0.28 -8.44,0.52 -11.78,0.52 -5.38,0 -6.83,-0.62 -6.98,-0.71 -0.62,-0.31 -1.56,-0.93 -2.54,-1.58 -4.55,-2.96 -11.43,-7.45 -20.15,-7.75 -0.24,0 -0.52,-0.03 -0.76,-0.03 -11.07,0 -20.86,8.13 -24.13,12.3 -0.16,0.09 -0.43,0.19 -0.71,0.24 -2.29,0 -8.96,-0.09 -14.7,-0.09 -4.27,0 -7.08,0.07 -8.6,0.12 -4.48,0.23 -8.56,3.34 -15.96,9.31 -3.5,2.78 -9.98,7.97 -12.27,8.52 -0.98,0.19 -2.23,0.31 -3.51,0.47 -8.5,0.95 -24.54,2.75 -25.43,19.04 -0.4,7 -3.39,13.52 -7.26,19.42 -1.42,2.17 -2.44,4.91 -3.09,8.01 -0.71,-0.27 -1.42,-0.56 -2.12,-0.87 -0.07,-0.04 -0.13,-0.07 -0.2,-0.09 -4.83,-2.12 -9.03,-4.48 -12.58,-6.8 -9.6,-16.79 -27.69,-28.13 -48.37,-28.13 -27.7,0 -51.4,20.64 -55.16,48.04 l -0.15,1.07 52.41,-17.64 c 13.04,5.46 21.45,18.08 21.45,32.25 0,7.73 -2.48,15.04 -7.16,21.15 l -45.02,15.16 1.05,0.76 c 9.51,6.9 20.77,10.54 32.58,10.54 15.83,0 30.13,-6.64 40.28,-17.28 0.01,-0.01 0.01,-0.03 0.03,-0.03 5.14,-3.39 11.16,-6.83 18.07,-9.93 2.01,-0.9 3.98,-1.73 5.92,-2.48 1.84,-0.71 3.69,-1.34 5.57,-1.89 0.38,0.85 0.78,1.65 1.19,2.44 l 0.5,0.95 c 7.63,14.53 11.09,21.14 25.98,21.76 0.59,0.03 1.14,0.05 1.7,0.05 6.51,0 10.96,-1.66 13.9,-3.49 2.59,0.59 6.12,1.05 10.72,1.05 1.76,0 3.62,-0.05 5.53,-0.19 7.67,-0.55 13.39,-2.83 17.28,-5.12 3.89,2.7 9.91,5.35 18.87,5.88 3.8,0.24 6.67,0.34 9.36,0.34 3.51,0 10.1,0 16.59,-2.25 -6.28,6.55 -11.75,14.46 -12.09,22.34 -0.4,8.59 2.96,13.99 5.88,17 4.27,4.48 10.69,7.04 17.64,7.04 2,0 3.96,-0.21 5.84,-0.64 3.03,-0.68 5.5,-1.61 7.7,-2.41 3.58,-1.3 6.43,-2.35 11.52,-2.35 0.86,0 1.78,0.03 2.75,0.09 1.48,0.09 2.9,0.15 4.23,0.15 13.01,0 20.34,-4.65 27.34,-11.67 4.43,-4.39 8.29,-10.95 12.06,-17.24 2.92,-4.95 5.98,-10.07 8.83,-13.35 4.12,-4.71 5.42,-10.33 5.03,-15.96 3.89,1.74 7.51,3.61 10.84,5.5 0.46,0.51 0.94,1.01 1.42,1.49 19.56,19.56 51.39,19.56 70.95,0 7.53,-7.53 12.38,-17.02 14.04,-27.47 l 0.17,-1.15 -38.34,19.04 c -6.89,-0.93 -13.12,-4.02 -18.06,-8.95 z M 848.8,1035.9 c -6,2.54 -12.13,4.72 -18.28,6.83 -6.17,2.04 -12.37,4.01 -18.67,5.61 -0.78,0.2 -1.19,-0.95 -0.43,-1.26 9,-3.77 18.23,-6.95 27.55,-9.81 3.11,-0.94 6.24,-1.85 9.4,-2.64 0.36,-0.09 0.72,0.13 0.82,0.5 0.08,0.31 -0.1,0.63 -0.39,0.77 z m -16.96,-61.86 c -0.72,-0.35 -0.27,-1.52 0.51,-1.25 l 1.44,0.47 c 1.3,0.5 3.06,1.15 4.29,1.78 11.3,5.47 19.28,16.97 20.58,29.44 0.12,1.78 0.24,4.41 0.09,6.18 -0.03,0.36 -0.34,0.64 -0.71,0.63 -0.35,-0.01 -0.62,-0.3 -0.63,-0.63 -1.13,-16.13 -10.84,-29.92 -25.57,-36.62 z m 44.42,58.25 c 3.74,-6 6.36,-12.6 7.5,-19.42 2.51,-13.45 -1.05,-27.55 -8.91,-38.51 -4.02,-5.62 -9.19,-10.42 -15.24,-13.88 -24.23,-14.92 -57.62,-4.79 -70.87,20.38 11.51,-28.37 46.8,-39.53 72.91,-23.84 5.88,3.39 10.93,7.98 14.96,13.33 l 0.01,0.01 c 9.08,12.07 12.9,28.04 9.07,42.91 -1.73,6.97 -4.96,13.53 -9.43,19.02 z m 215.56,-75.79 c 3.17,4.6 4.94,20.2 5.81,30.92 -1.69,0.12 -3.39,0.17 -5.08,0.17 h -0.28 c 0,-10.2 -0.13,-21.22 -0.56,-31.24 0.05,0.05 0.08,0.09 0.11,0.15 z m -66.8,83.78 c -4.29,1.8 -9.55,2.35 -15.29,2.35 -2.87,0 -5.84,-0.12 -8.89,-0.31 -3.46,-0.21 -6.3,-0.76 -8.65,-1.52 -3.9,-1.23 -6.43,-4.94 -6.47,-9.01 -0.01,-2.66 -0.07,-5.31 -0.17,-7.98 -0.05,-1.9 -0.15,-3.82 -0.25,-5.74 l -1.05,-20.2 c -0.05,-1.15 -0.11,-2.32 -0.16,-3.47 -0.04,-0.95 -0.08,-1.91 -0.12,-2.87 -0.05,-1.3 -0.11,-2.62 -0.15,-3.93 -0.12,-3.31 -0.21,-6.63 -0.23,-9.93 0.07,-6.71 0.19,-13.51 1.49,-20.11 -1.82,6.14 -2.63,12.54 -3.3,18.93 -0.5,-2.9 -0.99,-5.84 -1.8,-8.68 -0.95,-3.27 -2.07,-6.8 -4.6,-9.27 1.45,3.1 1.73,6.47 2.32,9.74 0.48,3.33 0.93,6.67 1.29,10.03 l 0.8,9.28 0.35,3.93 0.24,2.88 0.09,1.02 c -0.04,0.8 -0.09,1.61 -0.12,2.41 -0.31,6.76 -0.66,13.54 -0.87,20.3 -0.07,1.89 -0.11,3.78 -0.12,5.67 -0.04,2.62 -0.03,5.23 0.03,7.86 0.07,3.02 -1.57,5.86 -4.32,7.1 -2.87,1.3 -6.64,2.44 -11.4,2.79 -1.82,0.15 -3.46,0.19 -4.98,0.19 -0.5,0 -1.02,0 -1.54,-0.04 -3.37,-0.19 -6.4,-2.04 -8.06,-4.94 -2.4,-4.25 -4.74,-8.56 -6.68,-12.96 -0.05,-0.11 -0.09,-0.23 -0.15,-0.34 -1.3,-2.99 -2.54,-6.12 -2.96,-8.96 -0.25,-1.23 -0.21,-3.14 -0.31,-4.75 l -0.12,-5.07 c -0.03,-3.43 -0.08,-6.87 -0.11,-10.29 0,-0.97 -0.01,-1.93 -0.01,-2.9 0,-1.31 0,-2.62 0.01,-3.92 0,-1.09 0.01,-2.17 0.04,-3.26 0.15,-6.79 -0.21,-13.56 0.74,-20.32 -1.73,3.03 -2.5,6.49 -3.25,9.86 -0.05,0.21 -0.05,0.4 -0.12,0.62 -0.46,-1.33 -1.02,-2.63 -1.7,-3.9 -0.7,-1.23 -1.57,-2.47 -2.74,-3.27 0.74,1.21 1.07,2.54 1.41,3.84 0.31,1.3 0.56,2.63 0.75,3.96 0.43,2.62 0.64,5.34 0.98,7.94 -0.05,0.34 -0.08,0.71 -0.15,1.05 -0.11,1.17 -0.2,2.33 -0.3,3.5 -0.12,1.31 -0.21,2.63 -0.31,3.94 -0.07,0.94 -0.13,1.89 -0.2,2.83 -0.2,3.43 -0.35,6.87 -0.4,10.3 l -0.09,5.19 0.03,2.59 0.04,1.33 0.15,1.52 c 0.46,3.17 1.37,5.88 2.37,8.52 0.25,0.67 0.52,1.33 0.78,1.99 2.29,5.43 4.88,10.57 7.82,15.57 -1.73,1.26 -4.91,2.8 -10.53,2.8 -0.44,0 -0.9,-0.03 -1.4,-0.03 -10.66,-0.46 -12.09,-3.65 -19.96,-18.59 -0.12,-0.23 -0.23,-0.44 -0.34,-0.67 -5.06,-9.98 -7.61,-23.27 -7.4,-33.39 0.01,-0.55 0.03,-1.1 0.05,-1.62 0.09,-1.65 0.25,-3.19 0.5,-4.6 0.42,-2.32 1.03,-4.29 1.88,-5.75 4.63,-8.06 7.54,-14.43 8.87,-24.78 1.3,-10.38 15.1,-9.98 22.46,-11.19 7.35,-1.23 22.59,-17.52 27.29,-17.73 1.54,-0.09 4.7,-0.12 8.22,-0.12 6.98,0 15.41,0.12 15.41,0.12 0,0 4.05,-0.52 6,-3.11 1.9,-2.58 9.91,-9.46 18.14,-9.46 0.15,0 0.34,0 0.48,0.03 8.41,0.28 15.24,6.18 19.25,8.41 2.25,1.23 6.06,1.64 10.69,1.64 3.68,0 7.87,-0.25 12.23,-0.52 0.43,-0.04 0.87,-0.04 1.3,-0.04 9.79,0 23.54,6.28 24.84,14.41 0.31,1.81 0.64,3.42 1.1,4.91 0.5,7.45 1.37,21.29 1.89,36.04 0.09,2.32 0.15,4.64 0.24,6.99 0.03,0.83 0.04,1.65 0.07,2.48 0.03,1.35 0.07,2.7 0.09,4.04 0.01,0.91 0.03,1.82 0.04,2.72 0.12,7.78 0.08,15.27 -0.23,21.68 v 0.28 c -0.21,2.37 -0.4,4.76 -0.5,7.14 0,0.12 -0.01,0.24 -0.03,0.36 -0.17,2.21 -1.23,4.25 -2.99,5.57 l -0.04,0.04 c -1.95,1.57 -3.8,3.23 -5.5,5 -0.46,0.46 -0.95,0.83 -1.48,1.19 -2.04,0.04 -4.08,0.09 -6.09,0.07 -3.09,0.03 -6.14,-0.09 -9.2,-0.28 -6.16,-0.46 -12.18,-1.29 -18.35,-2.9 2.56,1.97 5.59,3.27 8.65,4.2 1.48,0.5 3.02,0.83 4.56,1.11 -1.78,0.03 -3.54,0.03 -5.27,0.09 -1.99,0.07 -4.02,0.19 -5.94,0.31 -0.95,0.07 -1.91,-0.03 -2.78,-0.4 l -0.12,-0.07 c -2.54,-1.07 -4.02,-3.7 -3.62,-6.43 0.39,-2.51 0.67,-5 0.9,-7.51 0.21,-2.56 0.36,-5.11 0.47,-7.69 0.25,-7.24 0.16,-14.45 -0.39,-21.72 -0.01,-0.39 -0.05,-0.78 -0.08,-1.17 -0.05,-0.56 -0.12,-1.13 -0.17,-1.7 -0.05,-0.43 -0.09,-0.86 -0.13,-1.3 0.07,-0.89 0.12,-1.77 0.19,-2.64 0.08,-1.34 0.17,-2.68 0.31,-4.02 0.28,-3.53 0.71,-7.02 1.21,-10.5 0.5,-3.5 0.99,-6.99 2.01,-10.48 -2.29,2.87 -3.72,6.36 -4.76,9.86 -0.38,1.19 -0.68,2.44 -0.97,3.68 -0.34,-1.82 -0.67,-3.62 -1.02,-5.45 -1.45,-7.4 -3.37,-14.77 -5.46,-21.99 1.26,7.45 2.09,14.92 2.9,22.39 0.52,5.49 0.91,11.01 1.13,16.51 0.05,1.31 0.09,2.63 0.11,3.94 0.03,0.64 0.03,1.27 0.04,1.92 v 0.94 c 0,7.08 -0.59,14.25 -1.21,21.33 -0.24,2.68 -0.51,5.39 -0.8,8.09 -0.35,3.19 -0.72,6.37 -1.14,9.5 -0.42,3.06 -2.36,5.77 -5.21,6.97 z m 87.19,1.68 c -7.04,8.06 -13.49,23.17 -20.54,30.24 -0.13,0.09 -0.21,0.19 -0.31,0.28 0.17,-9.63 -3.31,-19.46 -5.85,-18.73 -2.71,0.8 1.11,3.93 1.82,13.41 0.28,4.05 -0.27,7.54 -1.92,10.22 -4.25,2.79 -8.92,4.21 -15.63,4.21 -1.17,0 -2.41,-0.07 -3.7,-0.13 h -0.09 c -2.56,-2.96 0.09,-9.05 -2.78,-14.27 -4.05,-7.28 -16.19,-7.66 -9.03,-4.79 7.14,2.87 7.3,14.68 4.1,15.08 -3.15,0.4 -2.19,-1.85 -2.04,-5.41 0.13,-3.51 -2.54,-3.25 -3.94,3.96 -1.46,7.16 -15.88,12.66 -16.19,5.29 -0.31,-7.42 13.59,-18.3 13.59,-18.3 -12.76,2.35 -18.82,17.21 -20.39,21.76 -4.39,-2.25 -7.69,-6.68 -7.38,-14 0.31,-6.85 6.79,-14.54 13.31,-20.56 3.93,-3.65 9.05,-5.66 14.39,-5.73 h 0.09 l 8.2,-0.17 8.16,-0.19 c 0.71,0 1.76,-0.07 2.9,-0.19 4.82,-0.38 9.34,-2.54 12.64,-6.05 1.42,-1.49 2.82,-3.03 4.24,-4.52 1.54,-1.64 3.15,-3.18 4.7,-4.82 l 0.59,-0.59 c 0.08,-0.12 0.17,-0.21 0.31,-0.31 1.23,-1.3 2.52,-2.55 4.15,-3.7 6.53,0.36 12.97,1.64 19.14,3.78 1.2,5.19 0.81,10.41 -2.54,14.23 z m -6.44,-49.12 c -2.54,0.54 -5.1,0.93 -7.69,1.15 -1.95,0.19 -3.9,0.28 -5.85,0.31 0.01,-0.89 0.01,-1.77 0.01,-2.67 1.89,-0.01 3.78,-0.07 5.67,-0.15 2.58,-0.13 5.15,-0.32 7.73,-0.62 0.09,0 0.19,-0.01 0.28,-0.03 4.64,-0.63 9.26,-1.58 13.84,-2.87 -4.4,2.23 -9.12,3.84 -13.99,4.88 z m 55.75,29.29 c 0.2,0.23 0.21,0.58 0,0.8 -0.23,0.25 -0.6,0.27 -0.84,0.04 -1.23,-1.02 -2.83,-2.78 -3.89,-3.98 -4.83,-5.97 -7.4,-13.59 -7.4,-21.22 0,-3.62 0.58,-7.23 1.77,-10.66 0.36,-1.18 1.07,-2.72 1.58,-3.86 l 0.62,-1.22 c 0.34,-0.66 1.35,-0.21 1.11,0.47 -5.12,13.65 -2.52,28.62 7.05,39.63 z m -12.14,21.92 c -1.45,-0.67 -2.86,-1.42 -4.23,-2.25 -17.22,-10.16 -25.69,-31.91 -20.54,-51.16 1.3,-5.23 3.5,-10.03 6.37,-14.29 11.75,-17.37 34.86,-25.61 55.28,-16.98 -16.57,-5.14 -34.62,-0.01 -46.4,11.59 -5.63,5.51 -9.82,12.52 -11.74,20.58 -4.87,17.91 2.62,38.23 17.99,48.78 1.06,0.75 2.15,1.46 3.26,2.11 4.28,2.54 8.99,4.36 13.9,5.5 -4.77,-0.5 -9.49,-1.82 -13.89,-3.88 z m 33.16,-12.42 c 2.52,-1.52 5.1,-2.91 7.67,-4.31 7.77,-4.12 15.67,-7.97 23.81,-11.31 0.68,-0.28 1.15,0.71 0.54,1.07 -5.04,3 -10.25,5.7 -15.48,8.33 -5.26,2.59 -10.56,5.1 -16,7.3 -0.27,0.11 -0.58,0 -0.74,-0.25 -0.18,-0.28 -0.08,-0.65 0.2,-0.83 z"
   id="path5" />
	<path
   d="m 1027.12,921.48 c -1.25,-0.8 -2.4,-1.84 -3.82,-2.4 -2.67,-1.5 -5.8,-2.09 -8.88,-2.21 -3.11,-0.05 -6.22,0.67 -8.95,2.04 -2.74,1.33 -5.18,3.26 -6.9,5.69 5.1,-2.9 10.4,-4.78 15.8,-4.64 1.34,0 2.7,0.09 4.02,0.38 l 2.01,0.38 c 0.64,0.21 1.3,0.42 1.97,0.6 1.37,0.31 2.59,1.01 3.96,1.48 1.3,0.56 2.56,1.26 3.97,1.81 -0.98,-1.1 -2.04,-2.16 -3.18,-3.13 z"
   id="path6" />
	<path
   d="m 1013.66,927.27 c 1.09,-0.01 2.17,0.01 3.3,0.05 1.14,0.01 2.29,0.11 3.68,0 -1.68,-2.12 -4.33,-3.1 -6.96,-3.15 -1.31,0.01 -2.63,0.24 -3.84,0.76 -1.21,0.5 -2.35,1.25 -3.11,2.39 2.65,0 4.75,-0.09 6.93,-0.05 z"
   id="path7" />
	<path
   d="m 965.45,931.84 c -2.03,0.93 -3.94,2.09 -5.57,3.62 -1.64,1.49 -3.06,3.29 -3.78,5.38 3.47,-2.62 6.91,-4.56 10.58,-6.16 1.84,-0.78 3.7,-1.49 5.66,-2.09 1.95,-0.64 3.96,-1.14 6.05,-1.86 -4.25,-1.16 -8.83,-0.58 -12.94,1.11 z"
   id="path8" />
	<path
   d="m 925.05,948.3 c -1.37,0.76 -2.6,1.78 -3.51,3.05 -0.93,1.25 -1.6,2.71 -1.65,4.28 1.19,-0.99 2.27,-1.81 3.35,-2.58 1.09,-0.74 2.15,-1.46 3.29,-2.04 1.13,-0.59 2.28,-1.15 3.51,-1.66 1.23,-0.54 2.55,-0.98 3.96,-1.68 -2.86,-1.19 -6.18,-0.82 -8.95,0.63 z"
   id="path9" />
	<path
   d="m 1060.12,931.63 c 2.92,0.23 5.79,0.68 8.6,1.46 2.78,0.87 5.41,2.08 8.06,3.76 -1.73,-2.59 -4.32,-4.63 -7.2,-6.01 -2.91,-1.34 -6.08,-1.99 -9.2,-2.29 -3.15,-0.24 -6.29,-0.04 -9.36,0.51 -3.06,0.55 -6.06,1.4 -8.84,2.8 3.1,-0.17 6.1,-0.32 9.1,-0.42 2.96,-0.04 5.93,-0.11 8.84,0.19 z"
   id="path10" />
	<path
   d="m 1065.05,937.86 c 1.4,0.11 2.79,0.32 4.39,0.34 -2.09,-2.36 -5.2,-3.51 -8.26,-3.74 -1.53,-0.08 -3.09,0 -4.57,0.39 -1.48,0.38 -2.94,0.97 -4.16,2 3.1,0.39 5.78,0.46 8.52,0.7 1.35,0.05 2.7,0.19 4.08,0.31 z"
   id="path11" />
	<path
   d="m 921.42,1038.01 c 0.89,1.48 2.36,2.47 3.86,3.19 1.52,0.74 3.16,1.11 4.8,1.32 3.29,0.31 6.63,-0.12 9.56,-1.79 -1.65,-0.43 -3.2,-0.6 -4.73,-0.78 -1.52,-0.22 -3.02,-0.29 -4.49,-0.5 -2.98,-0.31 -5.79,-0.65 -9,-1.44 z"
   id="path12" />
	<path
   d="m 963.22,1037.31 c -3.53,0.27 -7.03,0.24 -10.89,0.4 1.6,1.14 3.45,1.81 5.33,2.24 1.89,0.44 3.84,0.54 5.77,0.44 3.86,-0.25 7.78,-1.61 10.58,-4.35 -1.96,0.2 -3.72,0.58 -5.5,0.76 -1.77,0.22 -3.52,0.43 -5.29,0.51 z"
   id="path13" />
	<path
   d="m 1007.25,1036.17 c -5.65,-0.21 -11.21,-1.18 -17,-2.54 2.37,1.85 5.14,3.11 7.98,4.04 2.86,0.94 5.86,1.42 8.87,1.58 3.02,0.12 6.06,-0.11 8.99,-0.86 2.94,-0.64 5.73,-1.89 8.25,-3.47 -2.98,0.39 -5.78,0.93 -8.64,1.1 -2.82,0.24 -5.65,0.31 -8.45,0.15 z"
   id="path14" />
	<path
   d="m 1060.41,1028.48 c -3.5,-0.16 -6.9,-0.34 -10.66,-0.42 1.48,1.25 3.23,2 5.02,2.55 1.78,0.56 3.64,0.82 5.5,0.95 3.7,0.12 7.47,-0.4 10.84,-2.19 -1.88,-0.38 -3.66,-0.48 -5.45,-0.6 z"
   id="path15" />
	<path
   d="m 996.76,1031.79 c 1.42,1.15 3.07,1.89 4.76,2.43 1.7,0.55 3.47,0.82 5.26,0.93 3.54,0.13 7.28,-0.58 10.22,-2.75 -1.84,-0.15 -3.49,-0.09 -5.16,-0.16 -1.65,-0.07 -3.29,-0.07 -4.92,-0.17 -3.3,-0.1 -6.55,-0.37 -10.16,-0.28 z"
   id="path16" />
</g><text
       xml:space="preserve"
       style="font-style:normal;font-variant:normal;font-weight:bold;font-stretch:normal;font-size:146.667px;font-family:FreeSerif;-inkscape-font-specification:'FreeSerif, Bold';font-variant-ligatures:normal;font-variant-caps:normal;font-variant-numeric:normal;font-variant-east-asian:normal;letter-spacing:2px;writing-mode:lr-tb;direction:ltr;fill:#000000;fill-opacity:1;stroke:#000000;stroke-width:0"
       x="951.68097"
       y="1049.5734"
       id="text16"><tspan
         sodipodi:role="line"
         id="tspan16"
         x="951.68097"
         y="1049.5734">DIY</tspan></text></g><text
     xml:space="preserve"
     style="font-style:normal;font-variant:normal;font-weight:bold;font-stretch:normal;font-size:192px;font-family:FreeSerif;-inkscape-font-specification:'FreeSerif, Bold';font-variant-ligatures:normal;font-variant-caps:normal;font-variant-numeric:normal;font-variant-east-asian:normal;letter-spacing:2px;writing-mode:lr-tb;direction:ltr;fill:#000000;fill-opacity:1;stroke:#000000;stroke-width:0"
     x="688.1441"
     y="1239.916"
     id="text17"><tspan
       sodipodi:role="line"
       id="tspan17"
       x="688.1441"
       y="1239.916">Builder</tspan></text></g></svg>
